HIERARCHY
ROOT hip
{
  OFFSET 9.40255 82.28 -183.984
  CHANNELS 6 Xposition Yposition Zposition Zrotation Xrotation Yrotation
  JOINT abdomen
  {
    OFFSET 0 20.6881 -0.73152
    CHANNELS 3 Zrotation Xrotation Yrotation
    JOINT chest
    {
      OFFSET 0 11.7043 -0.48768
      CHANNELS 3 Zrotation Xrotation Yrotation
      JOINT neck
      {
        OFFSET 0 22.1894 -2.19456
        CHANNELS 3 Zrotation Xrotation Yrotation
        JOINT head
        {
          OFFSET -0.24384 7.07133 1.2192
          CHANNELS 3 Zrotation Xrotation Yrotation
          JOINT leftEye
          {
            OFFSET 4.14528 8.04674 8.04672
            CHANNELS 3 Zrotation Xrotation Yrotation
            End Site
            {
              OFFSET 1 0 0
            }
          }
          JOINT rightEye
          {
            OFFSET -3.6576 8.04674 8.04672
            CHANNELS 3 Zrotation Xrotation Yrotation
            End Site
            {
              OFFSET 1 0 0
            }
          }
        }
      }
      JOINT rCollar
      {
        OFFSET -2.68224 19.2634 -4.8768
        CHANNELS 3 Zrotation Xrotation Yrotation
        JOINT rShldr
        {
          OFFSET -8.77824 -1.95073 1.46304
          CHANNELS 3 Zrotation Xrotation Yrotation
          JOINT rForeArm
          {
            OFFSET -28.1742 -1.7115 0.48768
            CHANNELS 3 Zrotation Xrotation Yrotation
            JOINT rHand
            {
              OFFSET -22.5879 0.773209 7.07136
              CHANNELS 3 Zrotation Xrotation Yrotation
              JOINT rThumb1
              {
                OFFSET -1.2192 -0.487915 3.41376
                CHANNELS 3 Zrotation Xrotation Yrotation
                JOINT rThumb2
                {
                  OFFSET -3.37035 -0.52449 3.41376
                  CHANNELS 3 Zrotation Xrotation Yrotation
                  End Site
                  {
                    OFFSET -1.78271 -1.18214 1.43049
                  }
                }
              }
              JOINT rIndex1
              {
                OFFSET -7.75947 0.938293 5.60832
                CHANNELS 3 Zrotation Xrotation Yrotation
                JOINT rIndex2
                {
                  OFFSET -2.54057 -0.884171 1.56538
                  CHANNELS 3 Zrotation Xrotation Yrotation
                  End Site
                  {
                    OFFSET -1.62519 -0.234802 1.16502
                  }
                }
              }
              JOINT rMid1
              {
                OFFSET -8.24714 1.18213 3.41376
                CHANNELS 3 Zrotation Xrotation Yrotation
                JOINT rMid2
                {
                  OFFSET -3.10165 -0.590103 1.0647
                  CHANNELS 3 Zrotation Xrotation Yrotation
                  End Site
                  {
                    OFFSET -2.48547 -0.328903 0.83742
                  }
                }
              }
              JOINT rRing1
              {
                OFFSET -8.82822 0.546677 1.51678
                CHANNELS 3 Zrotation Xrotation Yrotation
                JOINT rRing2
                {
                  OFFSET -2.60934 -0.819778 -0.0198488
                  CHANNELS 3 Zrotation Xrotation Yrotation
                  End Site
                  {
                    OFFSET -2.33842 -0.294052 0.168128
                  }
                }
              }
              JOINT rPinky1
              {
                OFFSET -8.27202 -0.0477905 -0.4584
                CHANNELS 3 Zrotation Xrotation Yrotation
                JOINT rPinky2
                {
                  OFFSET -1.82734 -0.647385 -0.700984
                  CHANNELS 3 Zrotation Xrotation Yrotation
                  End Site
                  {
                    OFFSET -1.69225 -0.51767 -0.607171
                  }
                }
              }
            }
          }
        }
      }
      JOINT lCollar
      {
        OFFSET 2.68224 19.2634 -4.8768
        CHANNELS 3 Zrotation Xrotation Yrotation
        JOINT lShldr
        {
          OFFSET 8.77824 -1.95073 1.46304
          CHANNELS 3 Zrotation Xrotation Yrotation
          JOINT lForeArm
          {
            OFFSET 28.1742 -1.7115 0.48768
            CHANNELS 3 Zrotation Xrotation Yrotation
            JOINT lHand
            {
              OFFSET 22.5879 0.773209 7.07136
              CHANNELS 3 Zrotation Xrotation Yrotation
              JOINT lThumb1
              {
                OFFSET 1.2192 -0.487915 3.41376
                CHANNELS 3 Zrotation Xrotation Yrotation
                JOINT lThumb2
                {
                  OFFSET 3.37035 -0.52449 3.41376
                  CHANNELS 3 Zrotation Xrotation Yrotation
                  End Site
                  {
                    OFFSET 1.78271 -1.18214 1.43049
                  }
                }
              }
              JOINT lIndex1
              {
                OFFSET 7.75947 0.938293 5.60832
                CHANNELS 3 Zrotation Xrotation Yrotation
                JOINT lIndex2
                {
                  OFFSET 2.54057 -0.884171 1.56538
                  CHANNELS 3 Zrotation Xrotation Yrotation
                  End Site
                  {
                    OFFSET 1.62519 -0.234802 1.16502
                  }
                }
              }
              JOINT lMid1
              {
                OFFSET 8.24714 1.18213 3.41376
                CHANNELS 3 Zrotation Xrotation Yrotation
                JOINT lMid2
                {
                  OFFSET 3.10165 -0.590103 1.0647
                  CHANNELS 3 Zrotation Xrotation Yrotation
                  End Site
                  {
                    OFFSET 2.48547 -0.328903 0.83742
                  }
                }
              }
              JOINT lRing1
              {
                OFFSET 8.82822 0.546677 1.51678
                CHANNELS 3 Zrotation Xrotation Yrotation
                JOINT lRing2
                {
                  OFFSET 2.60934 -0.819778 -0.0198488
                  CHANNELS 3 Zrotation Xrotation Yrotation
                  End Site
                  {
                    OFFSET 2.33842 -0.294052 0.168128
                  }
                }
              }
              JOINT lPinky1
              {
                OFFSET 8.27202 -0.0477905 -0.4584
                CHANNELS 3 Zrotation Xrotation Yrotation
                JOINT lPinky2
                {
                  OFFSET 1.82734 -0.647385 -0.700984
                  CHANNELS 3 Zrotation Xrotation Yrotation
                  End Site
                  {
                    OFFSET 1.69225 -0.51767 -0.607171
                  }
                }
              }
            }
          }
        }
      }
    }
  }
  JOINT rButtock
  {
    OFFSET -8.77824 4.35084 1.2192
    CHANNELS 3 Zrotation Xrotation Yrotation
    JOINT rThigh
    {
      OFFSET 0 -1.70687 -2.19456
      CHANNELS 3 Zrotation Xrotation Yrotation
      JOINT rShin
      {
        OFFSET 0 -36.8199 0.73152
        CHANNELS 3 Zrotation Xrotation Yrotation
        JOINT rFoot
        {
          OFFSET 0.73152 -45.1104 -5.12064
          CHANNELS 3 Zrotation Xrotation Yrotation
          End Site
          {
            OFFSET -1.1221 -3.69964 12.103
          }
        }
      }
    }
  }
  JOINT lButtock
  {
    OFFSET 8.77824 4.35084 1.2192
    CHANNELS 3 Zrotation Xrotation Yrotation
    JOINT lThigh
    {
      OFFSET 0 -1.70687 -2.19456
      CHANNELS 3 Zrotation Xrotation Yrotation
      JOINT lShin
      {
        OFFSET 0 -36.8199 0.73152
        CHANNELS 3 Zrotation Xrotation Yrotation
        JOINT lFoot
        {
          OFFSET -0.73152 -45.1104 -5.12064
          CHANNELS 3 Zrotation Xrotation Yrotation
          End Site
          {
            OFFSET 1.1221 -3.69964 12.103
          }
        }
      }
    }
  }
}
MOTION
Frames:	7
Frame Time:	0.00833333
10.1093 85.0925 -17.9451 -0.87571 -12.4065 179.101 -3.34804 -6.34849 11.8343 -0.968394 1.7613 3.37486 -3.80305 -19.5814 -4.34131 9.11186 27.502 -11.1975 -0 0 0 -0 0 0 -4.69062e-014 2.70347e-013 -2.22142e-014 91.5806 55.3477 -19.9327 -28.2024 -39.1673 82.442 -0.0811081 8.09788 1.1458 -9.39806e-010 -4.62173e-009 1.58085e-009 -1.61431e-009 -7.9884e-009 2.73797e-009 -9.39797e-010 -4.62173e-009 1.58083e-009 7.73091 5.47488 0.417314 -9.39803e-010 -4.62174e-009 1.58084e-009 2.90554 0.965183 0.102902 -9.39795e-010 -4.62174e-009 1.58084e-009 10.2786 0.731801 0.0259123 -9.39813e-010 -4.62174e-009 1.58085e-009 2.22167 -0.733487 -0.20892 -4.69233e-014 2.70347e-013 -2.23136e-014 -97.2721 55.3917 41.9519 27.122 -43.68 -90.8122 0.523656 20.1195 -2.95117 8.02095e-010 -1.88718e-009 -6.34934e-010 1.37977e-009 -3.3562e-009 -1.11178e-009 8.0209e-010 -1.88718e-009 -6.34925e-010 -7.73091 5.47488 -0.417314 8.0209e-010 -1.8872e-009 -6.34934e-010 -2.90554 0.965183 -0.102902 8.02088e-010 -1.88719e-009 -6.34936e-010 -10.2786 0.731801 -0.0259123 8.02099e-010 -1.88719e-009 -6.34947e-010 -2.22167 -0.733487 0.20892 -2.03217e-016 0 -3.88251e-019 5.05099 0.649608 0.81888 -0.283507 37.3076 0.498024 6.48596 32.8954 -14.2591 2.03217e-016 0 3.88251e-019 -3.93124 -36.6861 -6.72501 0.161472 25.5973 -0.293493 -0.747587 16.8316 5.57397 
10.0193 84.4483 -19.8759 -0.820931 -11.9522 178.843 -3.41711 -5.85531 11.2738 -0.917977 1.78659 3.21715 -3.6247 -19.5451 -4.17768 8.96201 27.4413 -10.9383 -0 0 0 -0 0 0 -5.86017e-014 3.03818e-013 6.17711e-016 92.3847 54.4797 -20.9181 -28.2476 -38.8428 81.8574 -0.0841325 8.24825 1.16737 -1.03632e-009 -4.83969e-009 1.53776e-009 -1.78198e-009 -8.36778e-009 2.6644e-009 -1.03631e-009 -4.83968e-009 1.53774e-009 7.73091 5.47488 0.417314 -1.03632e-009 -4.83969e-009 1.53775e-009 2.90554 0.965183 0.102902 -1.03631e-009 -4.83969e-009 1.53775e-009 10.2786 0.731801 0.0259123 -1.03633e-009 -4.8397e-009 1.53775e-009 2.22167 -0.733487 -0.20892 -5.8623e-014 3.03817e-013 5.01621e-016 -96.9178 55.7221 40.868 27.1621 -43.5645 -90.5873 0.514294 19.9516 -2.92434 1.097e-009 -2.3801e-009 -7.94924e-010 1.8864e-009 -4.23909e-009 -1.39247e-009 1.097e-009 -2.38009e-009 -7.94914e-010 -7.73091 5.47488 -0.417314 1.097e-009 -2.38011e-009 -7.94924e-010 -2.90554 0.965183 -0.102902 1.097e-009 -2.3801e-009 -7.94926e-010 -10.2786 0.731801 -0.0259123 1.09701e-009 -2.3801e-009 -7.94936e-010 -2.22167 -0.733487 0.20892 -2.03217e-016 0 -3.88251e-019 4.72287 -0.12803 0.248529 -0.350207 40.386 0.55495 6.28731 31.568 -14.5916 2.03217e-016 0 3.88251e-019 -4.2975 -35.9566 -6.32939 0.17545 26.9027 -0.295298 -0.740962 15.414 6.30944 
9.90461 83.7645 -21.789 -0.702982 -11.4636 178.549 -3.55442 -5.29704 10.61 -0.846696 1.80932 3.03016 -3.39226 -19.5015 -3.98049 8.78812 27.336 -10.6303 -0 0 0 -0 0 0 -6.77653e-014 2.9281e-013 3.8412e-014 93.106 53.5323 -21.8194 -28.2917 -38.4552 81.1819 -0.0880862 8.43708 1.19448 -9.05651e-010 -3.94471e-009 1.05861e-009 -1.55983e-009 -6.82389e-009 1.83574e-009 -9.05645e-010 -3.94471e-009 1.0586e-009 7.73091 5.47488 0.417314 -9.0565e-010 -3.94472e-009 1.05861e-009 2.90554 0.965183 0.102902 -9.05647e-010 -3.94472e-009 1.0586e-009 10.2786 0.731801 0.0259123 -9.05658e-010 -3.94472e-009 1.05861e-009 2.22167 -0.733487 -0.20892 -6.78103e-014 2.9281e-013 3.82598e-014 -96.4948 56.0704 39.6242 27.2105 -43.4164 -90.3064 0.498643 19.6633 -2.87846 1.22961e-009 -2.70906e-009 -8.20629e-010 2.11345e-009 -4.82019e-009 -1.43775e-009 1.22961e-009 -2.70905e-009 -8.20618e-010 -7.73091 5.47488 -0.417314 1.22961e-009 -2.70906e-009 -8.20629e-010 -2.90554 0.965183 -0.102902 1.22961e-009 -2.70907e-009 -8.2063e-010 -10.2786 0.731801 -0.0259123 1.22962e-009 -2.70906e-009 -8.20639e-010 -2.22167 -0.733487 0.20892 -2.03217e-016 0 -3.88251e-019 4.25296 -1.00081 -0.422765 -0.429327 43.6136 0.630118 6.00992 30.0738 -14.8864 2.03217e-016 0 3.88251e-019 -4.77059 -35.13 -6.06629 0.193606 28.4941 -0.301029 -0.722042 13.5334 7.59048 
9.76906 83.0626 -23.6712 -0.482286 -10.9778 178.286 -3.81238 -4.69527 9.91826 -0.752568 1.82577 2.8317 -3.14819 -19.4743 -3.77867 8.62827 27.1909 -10.3112 -0 0 0 -0 0 0 -7.62334e-014 2.71764e-013 7.13377e-014 93.7727 52.4917 -22.6489 -28.3304 -38.0361 80.4656 -0.0926802 8.65048 1.22517 -7.44996e-010 -2.95565e-009 5.56423e-010 -1.28579e-009 -5.11844e-009 9.67085e-010 -7.44992e-010 -2.95566e-009 5.56423e-010 7.73091 5.47488 0.417314 -7.44996e-010 -2.95566e-009 5.56421e-010 2.90554 0.965183 0.102902 -7.44996e-010 -2.95566e-009 5.56419e-010 10.2786 0.731801 0.0259123 -7.45002e-010 -2.95565e-009 5.56422e-010 2.22167 -0.733487 -0.20892 -7.63016e-014 2.71763e-013 7.11509e-014 -95.9615 56.4459 38.173 27.2725 -43.2288 -89.944 0.482264 19.3516 -2.82913 1.3123e-009 -3.17748e-009 -8.13166e-010 2.25473e-009 -5.63531e-009 -1.42473e-009 1.3123e-009 -3.17748e-009 -8.13154e-010 -7.73091 5.47488 -0.417314 1.3123e-009 -3.17748e-009 -8.13166e-010 -2.90554 0.965183 -0.102902 1.3123e-009 -3.17749e-009 -8.13166e-010 -10.2786 0.731801 -0.0259123 1.31231e-009 -3.17749e-009 -8.13174e-010 -2.22167 -0.733487 0.20892 -2.03217e-016 0 -3.88251e-019 3.61785 -2.01491 -1.10602 -0.523952 46.9159 0.722435 5.67873 28.5298 -15.1287 2.03217e-016 0 3.88251e-019 -5.34936 -34.2395 -5.91157 0.214079 30.1534 -0.307807 -0.632777 11.5512 9.13928 
9.61534 82.3618 -25.5199 -0.122242 -10.5321 178.122 -4.24736 -4.07268 9.27335 -0.633692 1.83219 2.63956 -2.93451 -19.4874 -3.60103 8.52009 27.0116 -10.0185 -0 0 0 -0 0 0 -8.58419e-014 2.75118e-013 7.95636e-014 94.4115 51.3437 -23.4185 -28.3631 -37.6199 79.7534 -0.0975794 8.87457 1.25741 -7.51549e-010 -2.89135e-009 4.44219e-010 -1.29777e-009 -5.01317e-009 7.73516e-010 -7.51546e-010 -2.89136e-009 4.44222e-010 7.73091 5.47488 0.417314 -7.5155e-010 -2.89136e-009 4.44219e-010 2.90554 0.965183 0.102902 -7.5155e-010 -2.89135e-009 4.44217e-010 10.2786 0.731801 0.0259123 -7.51555e-010 -2.89135e-009 4.44219e-010 2.22167 -0.733487 -0.20892 -8.59137e-014 2.75118e-013 7.93648e-014 -95.2718 56.8548 36.4624 27.352 -42.9935 -89.4759 0.470093 19.1136 -2.79163 1.45745e-009 -4.08878e-009 -8.73651e-010 2.50405e-009 -7.22025e-009 -1.53053e-009 1.45745e-009 -4.08877e-009 -8.73638e-010 -7.73091 5.47488 -0.417314 1.45745e-009 -4.08877e-009 -8.73651e-010 -2.90554 0.965183 -0.102902 1.45745e-009 -4.08879e-009 -8.7365e-010 -10.2786 0.731801 -0.0259123 1.45746e-009 -4.08879e-009 -8.73657e-010 -2.22167 -0.733487 0.20892 -2.03217e-016 0 -3.88251e-019 2.79774 -3.21646 -1.71256 -0.636241 50.2183 0.830374 5.32328 27.0519 -15.3028 2.03217e-016 0 3.88251e-019 -6.03294 -33.3175 -5.84112 0.234539 31.6625 -0.312407 -0.482391 9.82789 10.6901 
9.44417 81.6839 -27.334 0.408744 -10.1276 178.065 -4.90512 -3.41586 8.68354 -0.489592 1.8231 2.45603 -2.76643 -19.5494 -3.46109 8.48842 26.7851 -9.77088 -0 0 0 -0 0 0 -1.00816e-013 3.28628e-013 4.66239e-014 95.0199 50.0454 -24.0956 -28.394 -37.1892 79.0015 -0.103094 9.12324 1.29323 -1.08566e-009 -4.56965e-009 1.03523e-009 -1.87055e-009 -7.92475e-009 1.79753e-009 -1.08566e-009 -4.56965e-009 1.03523e-009 7.73091 5.47488 0.417314 -1.08566e-009 -4.56966e-009 1.03524e-009 2.90554 0.965183 0.102902 -1.08566e-009 -4.56965e-009 1.03523e-009 10.2786 0.731801 0.0259123 -1.08567e-009 -4.56965e-009 1.03523e-009 2.22167 -0.733487 -0.20892 -1.00858e-013 3.28629e-013 4.64566e-014 -94.3721 57.3053 34.4068 27.4525 -42.6839 -88.8635 0.462092 18.9559 -2.76684 1.78361e-009 -6.10093e-009 -1.09046e-009 3.06572e-009 -1.07218e-008 -1.90983e-009 1.78361e-009 -6.10092e-009 -1.09045e-009 -7.73091 5.47488 -0.417314 1.78361e-009 -6.10092e-009 -1.09046e-009 -2.90554 0.965183 -0.102902 1.78361e-009 -6.10093e-009 -1.09046e-009 -10.2786 0.731801 -0.0259123 1.78362e-009 -6.10093e-009 -1.09047e-009 -2.22167 -0.733487 0.20892 -2.03217e-016 0 -3.88251e-019 1.73738 -4.6086 -2.24649 -0.772291 53.5567 0.959057 4.93413 25.6633 -15.3467 2.03217e-016 0 3.88251e-019 -6.87534 -32.359 -5.93205 0.255377 33.0147 -0.313335 -0.304312 8.4111 12.3151 
9.26196 81.0343 -29.1092 1.0806 -9.74745 178.08 -5.7445 -2.71952 8.11286 -0.321465 1.80198 2.27245 -2.61974 -19.647 -3.34138 8.509 26.5134 -9.54589 -0 0 0 -0 0 0 -1.18931e-013 4.08401e-013 -1.31788e-014 95.5888 48.6215 -24.6948 -28.4186 -36.7304 78.2094 -0.109422 9.39804 1.33288 -1.60624e-009 -7.2651e-009 2.04149e-009 -2.76234e-009 -1.2598e-008 3.54048e-009 -1.60623e-009 -7.2651e-009 2.04148e-009 7.73091 5.47488 0.417314 -1.60624e-009 -7.26511e-009 2.0415e-009 2.90554 0.965183 0.102902 -1.60623e-009 -7.2651e-009 2.04149e-009 10.2786 0.731801 0.0259123 -1.60624e-009 -7.2651e-009 2.04149e-009 2.22167 -0.733487 -0.20892 -1.18923e-013 4.08405e-013 -1.32875e-014 -93.2743 57.7689 32.0293 27.5632 -42.3063 -88.1419 0.455865 18.8333 -2.74757 2.20132e-009 -8.85975e-009 -1.38919e-009 3.7855e-009 -1.55195e-008 -2.43235e-009 2.20132e-009 -8.85974e-009 -1.38918e-009 -7.73091 5.47488 -0.417314 2.20132e-009 -8.85975e-009 -1.38919e-009 -2.90554 0.965183 -0.102902 2.20132e-009 -8.85975e-009 -1.38919e-009 -10.2786 0.731801 -0.0259123 2.20132e-009 -8.85976e-009 -1.3892e-009 -2.22167 -0.733487 0.20892 -2.03217e-016 0 -3.88251e-019 0.459269 -6.16911 -2.74816 -0.940638 56.9523 1.11865 4.51519 24.3025 -15.2941 2.03217e-016 0 3.88251e-019 -7.84545 -31.3521 -6.16238 0.277224 34.3091 -0.312343 -0.0814352 7.12723 14.1107 
